<?xml version="1.0" encoding="UTF-8"?><svg id="Layer_2" xmlns="http://www.w3.org/2000/svg" viewBox="0 0 285.55 362.45"><defs><style>.cls-1{stroke:#000;stroke-linecap:round;stroke-linejoin:round;stroke-width:.5px;}</style></defs><g id="Layer_1-2"><path class="cls-1" d="M281.92,274.2c-1.64,18.51-3.9,36.9-12.39,53.78-7.88,15.66-18.91,28.05-36.54,34.22l-19.86-.13c.03-.28.06-.57.09-.86-.6-.21-1.2-.48-1.82-.62-17.28-3.89-28.37-14.72-35.34-30.69-6.51-14.91-7.56-30.77-8.47-46.56-1.33-23.21-1.41-46.5-2.71-69.72-.54-9.66-2.42-19.31-4.48-28.79-1.8-8.23-8.42-12.52-17.39-12.61-9.52-.09-15.86,3.88-18.08,12.26-1.84,6.97-3.59,14.13-4.01,21.29-1.07,18.48-1.38,37.01-2.01,55.53-.66,19.21-1.09,38.48-5.79,57.25-4.5,17.99-13.84,32.41-31.7,39.86-2.57,1.07-5.27,1.82-7.91,2.72.04.31.08.63.12.94l-20.89-.46c-4.53-1.82-8.16-2.67-11.14-4.56-11.04-6.99-19.5-16.42-25.4-28.15-7.32-14.56-10.88-30.26-11.9-46.23C2.25,250.56.33,218.38.25,186.23c-.09-31.32,2.06-62.65,3.46-93.96.99-22.22,5.67-43.61,16.14-63.42C29.32,10.93,43.9.63,64.61.88c14.25.17,26.47,5.5,34.77,17.51,9.85,14.26,13.2,30.92,15.32,47.64,2.16,16.99,2.66,34.18,4.69,51.18.78,6.48,3.06,13.05,5.97,18.94,4.75,9.63,16,12.84,25.78,8.35,9.41-4.31,12.52-12.87,13.69-22.01,1.93-15.04,3.19-30.17,4.42-45.29,1.36-16.63,4.59-32.8,10.92-48.27,3.15-7.71,7.45-14.68,14.35-19.64,22.61-16.27,54.12-9.98,68.78,14.08,11.48,18.84,16.25,40.05,18.06,61.62,2.13,25.26,2.97,50.64,3.56,75.99.88,37.77.35,75.54-3,113.22Z"/></g></svg>