<?xml version="1.0" encoding="UTF-8"?><svg id="Layer_2" xmlns="http://www.w3.org/2000/svg" viewBox="0 0 81.76 119.1"><defs><style>.cls-1{stroke-width:0px;}</style></defs><g id="Layer_1-2"><path class="cls-1" d="M39.79,0c7.6,15.43,15.2,30.86,22.15,44.95-.56,4.14-1.33,7.02-1.28,9.89.32,19.14.73,38.28,1.32,57.41.14,4.68-1.62,6.62-6.25,6.6-9.65-.05-19.31-.01-28.95.24-4.14.11-5.5-1.59-5.54-5.57-.21-17.15-.49-34.29-1.04-51.43-.17-5.08,1.84-10.67-2.52-15.17-.35-.36-.02-1.62.29-2.33C24.55,29.76,31.18,14.93,37.8.11c.66-.04,1.33-.07,1.99-.11ZM59.92,114.95c.11-1.27.31-2.56.31-3.85-.03-15.66,0-31.31-.18-46.97-.11-10.2-1.52-20.02-6.89-29.17-4.2-7.14-7.2-14.99-10.79-22.49-.95-1.98-2.13-3.85-3.73-6.7-5.51,11.98-10.57,22.82-15.46,33.74-1,2.24-1.93,4.77-1.91,7.16.17,20.15.42,40.3.98,60.44.26,9.37.59,9.36,10.2,8.46.29-.03.56-.31,1.27-.73.28-6.3.56-12.87.85-19.36.96-.2,1.43-.39,1.92-.4q11.48-.18,11.77,11.26.25,9.81,10.04,9.08c.47-.03.92-.27,1.63-.48Z"/><path class="cls-1" d="M9.23,83.99c1.45-2.72,2.28-4.29,3.12-5.86.24.02.48.04.71.06-.31,4.85-.63,9.71-.94,14.56l1.66.27c.76-1.4,1.52-2.79,2.28-4.19.23.01.47.03.7.04-.44,5.72-.88,11.45-1.32,17.17.47.12.94.24,1.42.36l2.25-2.68c.43.14.86.28,1.29.43-.88,3.78-1.76,7.55-2.64,11.33-.51.09-1.02.18-1.53.28-1.92-3.18-3.85-6.37-5.77-9.55.29-.27.58-.53.87-.8,1.16.52,2.32,1.04,3.5,1.57.98-6-3.1-9.25-6.45-13.3,1.13.2,2.26.4,3.38.6,1.08-5.9-4.89-6.93-8.31-10.73h4.14c.28-.34.56-.69.83-1.03-2.27-1.9-4.54-3.81-7.09-5.95.47-.35,1.23-.91,2.09-1.55-1.14-1.89-2.28-3.8-3.43-5.7.51-.35,1.03-.69,1.54-1.04,1.41,2.15,2.82,4.31,4.4,6.72.6-1.2,1.31-2.64,2.02-4.08.4.07.79.14,1.19.21-.4,1.98-1.09,3.95-1.11,5.94-.02,1.95.63,3.9,1.18,6.91Z"/><path class="cls-1" d="M69.88,94.37c-.65-4.3-1.3-8.61-1.95-12.91.27-.12.54-.24.81-.36.84,1.57,1.69,3.15,2.53,4.72.31.04.61.08.92.12.12-1.68.48-3.39.29-5.04-.2-1.79-.9-3.52-1.38-5.27.38-.15.76-.31,1.14-.46.82,1.29,1.64,2.58,2.72,4.28,1.3-3.03,2.52-5.87,3.73-8.7.49.2.98.39,1.48.59-.79,2.2-1.58,4.4-2.47,6.85,1,.31,2,.61,4.05,1.24-3.18,2-5.6,3.52-8.01,5.03.13.34.25.69.38,1.03,1.45-.09,2.89-.17,4.34-.26.19.29.37.58.56.86-3.05,2.47-6.11,4.93-9.16,7.4.3.4.61.81.91,1.21.95-.47,1.91-.94,2.86-1.4.26.2.52.4.78.6-2.39,3.21-4.78,6.42-7.17,9.62.34.32.68.64,1.02.96.83-.29,1.65-.58,4.03-1.4-2.04,4.49-3.6,7.94-5.16,11.38-.55-.06-1.11-.12-1.66-.18-.92-3.56-1.83-7.12-3.01-11.69,1.82.83,2.67,1.22,4.94,2.26-.88-5.1-1.62-9.36-2.58-14.89,1.68,2.27,2.62,3.54,3.57,4.82.49-.14.98-.27,1.48-.41Z"/><path class="cls-1" d="M36.18,30.69c.61,1.17,1.22,2.34,1.88,3.61,1.77-2.27,3.06-3.93,4.34-5.59.47.2.95.41,1.42.61-.87,4.66-1.75,9.33-2.62,13.99-.62.13-1.23.25-1.85.38l-5.27-11.79c.7-.4,1.4-.8,2.09-1.21Z"/></g></svg>