<?xml version="1.0" encoding="UTF-8"?><svg id="Layer_2" xmlns="http://www.w3.org/2000/svg" viewBox="0 0 288.87 363.45"><defs><style>.cls-1{stroke-width:0px;}</style></defs><g id="Layer_1-2"><path class="cls-1" d="M143.17,50.57c1.18-4.49,1.98-8.43,3.26-12.2,2.91-8.56,6.18-17.01,9.06-25.58.99-2.96,1.64-6.15,1.77-9.26.14-3.2,1.56-4.01,4.22-3.28,1.58.43,3.2,1.14,4.45,2.16.96.78,1.96,2.33,1.82,3.38-.13.92-1.8,1.66-2.83,2.43-1.81,1.34-4.69,2.27-5.32,4.03-4.16,11.48-7.85,23.12-11.65,34.73-.19.58-.02,1.28-.02,2.33,1.02-.4,1.72-.51,2.23-.88,18.65-13.43,39.22-14.51,60.16-7.82,31.18,9.95,50.49,32.58,61.81,62.4,14.64,38.57,18.52,78.7,16.05,119.65-1.38,22.85-3.4,45.61-10.16,67.63-7.29,23.71-18.28,45.05-40.44,58.35-26.15,15.69-53.66,18.92-82.37,7.67-2.95-1.15-5.74-2.86-8.36-4.67-2.14-1.47-3.8-1.63-6.03-.18-22.6,14.64-46.85,14.6-71.4,6.79-32.21-10.25-50.03-34.11-59.4-65.44C.58,261.25-.24,228.79.04,196.29c.27-30.61,5.6-60.43,16.09-89.24,9.2-25.27,23.93-46.18,47.97-59.42,19.57-10.78,40.17-13.66,61.61-6.56,4.8,1.59,9.13,4.65,13.65,7.07,1.16.62,2.22,1.41,3.8,2.43Z"/></g></svg>