<?xml version="1.0" encoding="UTF-8"?><svg id="Layer_2" xmlns="http://www.w3.org/2000/svg" viewBox="0 0 99.55 109.29"><defs><style>.cls-1{stroke-width:0px;}</style></defs><g id="Layer_1-2"><path class="cls-1" d="M6.23,42.64q-7.02-1.57-5.24-8.87c1.22-5.01,2.78-9.97,3.55-15.05.74-4.91,3.12-7.02,7.95-6.68.81.06,1.63-.13,3.56-.3-.39-3.38-.76-6.56-1.25-10.71,4.91-2.03,10.95-.21,16.77-1.02-.27,3.52-.5,6.53-.71,9.19,11.16,0,21.59.08,32.01-.03,6.99-.07,13.99-.23,20.95-.71,3.23-.22,5.09,1.01,6.23,3.74,3.01,7.21,5.98,14.44,8.92,21.68,1.03,2.53.93,4.87-2.46,5.01-3.77.15-4.22,2.24-4.07,5.3.89,17.28,1.72,34.57,2.53,51.86.53,11.4.31,11.84-11.16,12.09-23.14.5-46.28.58-69.41,1.15-5.16.13-5.74-2.57-5.87-6.43-.63-18.79-1.29-37.59-1.96-56.38-.05-1.31-.23-2.61-.34-3.84ZM41.54,80.03c4.08,0,8.37.12,12.65-.02,8.63-.28,8.67-.34,9.28,8.24.16,2.22.34,3.82,3.35,3.61,7.3-.52,14.62-.87,21.94-.99,3.35-.05,4.3-1.35,4.1-4.53-.29-4.65-.08-9.33-.26-13.99-.44-10.93-.99-21.86-1.48-32.48-.57-.38-.71-.55-.84-.54-26.46.74-52.93,1.46-79.38,2.43-1.08.04-2.99,2.55-2.96,3.87.32,14.65.98,29.29,1.46,43.93.09,2.71,1.01,3.81,3.89,3.71,5.15-.18,10.33-.1,15.49.09,15.17.55,12.42.9,12.11-11.64,0-.15.11-.31.66-1.68ZM44.6,81.19c-1.09,1.21-1.7,1.57-1.69,1.92.19,7.65.4,15.29.8,22.93.04.72,1.4,1.37,2.15,2.05.51-.87,1.49-1.77,1.45-2.61-.36-6.65-.88-13.28-1.44-19.92-.1-1.2-.66-2.35-1.26-4.37ZM42.59,36.28c.68.47,1.36.94,2.04,1.41.97-1.23,2.69-2.41,2.77-3.69.41-6.64.43-13.31.49-19.97,0-.82-.54-1.64-.83-2.46h-1.4c-1.02,8.24-2.05,16.47-3.07,24.71ZM37.37,12.35c-.64-.12-1.29-.25-1.93-.37-1.69,8.58-3.37,17.16-5.06,25.74.82.16,1.64.31,2.46.47,2.58-8.41,3.69-17.1,4.52-25.84ZM57,107.41c2.63-2.38,2.74-21.27.52-25.87-1.91,1.61-2.3,17.36-.52,25.87ZM52.95,106.98c.45-.01.9-.03,1.35-.04,0-7.76.04-15.53-.07-23.29-.01-.71-1.04-1.41-1.59-2.11-.56.66-1.65,1.35-1.6,1.96.55,7.83,1.25,15.65,1.92,23.47ZM43,12.29c-.72-.13-1.44-.26-2.15-.38-1.48,8.57-2.97,17.14-4.45,25.7.85.16,1.71.32,2.56.49,1.65-8.54,2.42-17.26,4.05-25.8ZM79.25,10.74c-.58.28-1.15.56-1.73.84,3.69,8.2,7.39,16.41,11.08,24.61.61-.3,1.22-.59,1.84-.89-3.73-8.19-7.46-16.37-11.18-24.56ZM49.23,82.25c-.68.07-1.35.15-2.03.22.7,8.37,1.41,16.75,2.11,25.12.68-.06,1.36-.12,2.04-.18-.71-8.39-1.42-16.77-2.12-25.16ZM66.07,11.65c.38,10.92,5.2,23.59,8.51,24.12-2.86-8.09-5.68-16.1-8.51-24.12ZM55.82,12.06c-2.6,8.08-1.75,21.83,1.6,24.92-.57-8.9-1.08-16.91-1.6-24.92ZM59.14,12.16c-1.58,9.29.56,22.53,4.16,24.71-1.45-8.6-2.81-16.66-4.16-24.71ZM66.36,36.59c.71-.16,1.43-.33,2.14-.49-1.84-8.14-3.69-16.27-5.53-24.41l-1.63.38c1.67,8.17,3.34,16.35,5.01,24.52ZM83.05,36.47c.64-.29,1.27-.57,1.91-.86-3.63-8.15-7.27-16.3-10.9-24.45-.46.21-.93.42-1.39.62,3.46,8.23,6.93,16.46,10.39,24.69ZM8.59,38.67c.69.19,1.37.39,2.06.58,2.7-7.94,4.55-16.12,6.05-24.4-.42-.12-.83-.23-1.25-.35l-6.86,24.18ZM25.43,37.6c.72.23,1.44.47,2.16.7,1.68-8.43,3.36-16.86,5.03-25.29-.48-.11-.97-.22-1.45-.33-1.91,8.31-3.83,16.61-5.74,24.92ZM77.45,36.35c.56-.26,1.11-.53,1.67-.79-3-8.2-6-16.4-9-24.59-.51.2-1.01.4-1.52.6,2.95,8.26,5.9,16.52,8.85,24.78ZM9.15,14.77c-.58-.15-1.15-.3-1.73-.45-2.05,8.33-4.1,16.67-6.14,25l1.49.39,6.38-24.93ZM13.27,14.63c-.63-.17-1.26-.34-1.89-.5-2.14,8.09-4.29,16.18-6.43,24.27.48.13.96.26,1.44.38,2.29-8.05,4.59-16.1,6.88-24.15ZM27.7,15.95l-1.41-.32c-1.77,7.36-3.55,14.73-5.32,22.09.67.15,1.35.31,2.02.46,1.57-7.41,3.14-14.82,4.71-22.23ZM19.9,16.93c-.5-.16-1.01-.32-1.51-.48-1.62,7.33-3.24,14.66-4.86,21.99.58.13,1.16.25,1.74.38,1.54-7.3,3.08-14.6,4.63-21.89ZM92.57,34.87c.34-.15.68-.29,1.02-.44-3.17-7.83-6.35-15.66-9.52-23.5-.51.22-1.02.44-1.53.66,3.34,7.76,6.69,15.52,10.03,23.28ZM61.67,81.96c-.23.06-.45.12-.68.18v24.05c.23-.02.45-.04.68-.06v-24.17ZM51.72,13.12l-.77.12v22.95c.26-.01.51-.03.77-.04V13.12ZM18.17,37.5c.35.07.7.14,1.05.2,1.46-7.23,2.92-14.46,4.39-21.69-.49-.09-.98-.19-1.47-.28-1.32,7.26-2.65,14.51-3.97,21.77ZM90.34,16.41l-1.1.58c2.37,6.13,4.74,12.26,7.11,18.39.43-.17.87-.34,1.3-.51-2.44-6.15-4.87-12.3-7.31-18.46Z"/></g></svg>