<?xml version="1.0" encoding="UTF-8"?><svg id="Layer_2" xmlns="http://www.w3.org/2000/svg" viewBox="0 0 83.21 101.59"><defs><style>.cls-1{stroke-width:0px;}</style></defs><g id="Layer_1-2"><path class="cls-1" d="M79.52,70.39v-17.82h-40.83v46.03h39.82v-18.15c.4,0,.8,0,1.19,0,0,6.09.12,12.19-.14,18.27-.04.86-1.88,2.17-3.03,2.35-2.94.46-5.97.52-8.96.52-19.96,0-39.93-.12-59.89,0-4.05.02-5.55-1.3-5.54-5.42.04-12.98-.14-25.97-.45-38.94-.05-2.29-1.22-4.53-1.63-6.84-.17-.99,0-2.28.52-3.13,4.84-7.96,9.59-15.98,14.86-23.65,1.24-1.8,4.3-3.16,6.6-3.27,8.3-.42,16.64-.27,24.96-.26,8.76.02,8.75.06,8.93-8.5.02-.96.19-1.92.33-3.24,1.94-.09,3.7-.17,5.23-.24.44.58.8.83.82,1.11.38,4.72,1.56,8.46,4.96,12.64,6.2,7.64,10.24,17.02,15.15,25.7.39.7.99,1.92.71,2.26-5.02,6.08-1.29,13.52-3.62,20.58ZM36.24,98.91c.27-.95.6-1.57.61-2.2.23-13.33.47-26.66.58-39.98.01-1.42-.45-3.06-1.25-4.23-6-8.75-12.14-17.42-18.93-27.08-4.8,8.73-9.38,16.98-13.84,25.28-.52.96-.51,2.28-.5,3.43.07,13.63.18,27.26.31,40.88.02,1.58.23,3.16.35,4.67h9.71c0-6.86,0-13.31,0-19.77,0-2.63-.61-5.9,3.68-5.3,3.46.48,9.03-2.57,8.85,4.88-.15,6.42-.03,12.85-.03,19.42h10.46ZM72.59,38.34c0-.45,0-.91,0-1.36H31.88c0,.45,0,.91,0,1.36h40.7ZM27.9,31.91v1.24h42.21c0-.41,0-.83,0-1.24H27.9ZM35.79,42.13c.01.38.02.75.03,1.13h39.6c-.01-.38-.03-.75-.04-1.13h-39.6ZM67.77,28.05c0-.31,0-.61,0-.92H25.06c0,.31,0,.61,0,.92h42.72ZM38.41,46.47c0,.37,0,.74,0,1.11h40.22c-.01-.37-.03-.74-.04-1.11h-40.19ZM65.29,24.37c0-.22,0-.44,0-.66H24.18c0,.22,0,.44.01.66h41.1Z"/><path class="cls-1" d="M42.57,19.28c2.29-3.51,3.85-5.91,5.4-8.3-.26-.35-.52-.7-.77-1.05-4.32,1.73-8.6,3.57-12.97,5.16-3.22,1.17-6.53,2.12-9.86,2.91-.69.16-1.65-.85-3.71-2.02,5.2-.87,8.91-1.49,13.63-2.28-8.29-5.6-14.7-4.17-20.56,2.32-.27-.47-.54-.94-.81-1.41,1.51-1.81,3.03-3.63,4.53-5.43-4.93-1.26-5.26-1.01-10.79,8.22-.39-.17-.79-.35-1.18-.52,1.24-2.82,2.49-5.64,3.77-8.54-.8-.08-2.16-.21-3.52-.34,5.58-5.05,11.23-.31,17.49-.22-2.14-2.05-3.84-3.68-5.55-5.3.29-.5.59-.99.88-1.49,7.17,2.23,10.26,13.73,20.23,9.78-2.24-1.73-4.51-3.48-6.78-5.24.24-.36.48-.73.72-1.09,3.49,1.54,6.97,4.25,10.48,4.27,3.33.02,6.68-2.76,10.02-4.31-.15-.61-.31-1.22-.46-1.82-3.85.18-7.7.37-12.1.58,5.51-4.8,9.48-4.25,18.21,2.43-5.72-1.5-7.8,1.07-8.85,5.49-.81,3.39-1.77,7.01-7.46,8.2Z"/><path class="cls-1" d="M48.33,64.76c-1.63,1.02-3,2.41-3.59,2.13-.97-.45-2.05-2.05-1.94-3.05.1-1.01,1.59-1.88,2.46-2.8.83,1,1.66,2.01,3.07,3.72Z"/></g></svg>