<?xml version="1.0" encoding="UTF-8"?><svg id="Layer_2" xmlns="http://www.w3.org/2000/svg" viewBox="0 0 293.91 369.49"><defs><style>.cls-1{stroke-width:0px;}</style></defs><g id="Layer_1-2"><path class="cls-1" d="M283.46,139.42c4.45,4.23,4.45,5.96-.02,10.17-5.48,5.16-5.45,6.5.21,11.52,3.75,3.33,4.53,6.19,2.63,10.79-.79,1.92-1.72,3.9-3.06,5.44-5.84,6.68-5.79,14.03-3.21,21.95,2.59,7.94,5.29,15.89,7.17,24.01,2.89,12.42-.61,23.09-11.24,30.45-5.2,3.59-11.18,6.12-16.98,8.76-6.95,3.16-14.38,5.37-21.08,8.98-8.72,4.7-15.4,11.52-16.45,22.19-.75,7.71,2.03,14.66,6.95,20.01,8.26,8.96,17.12,17.46,26.34,25.43,9.82,8.48,20.09,16.34,26.03,28.37.54,1.1,2.62,1.95,4.02,2l-284.77-.09c1.61-.26,3.47-1.49,4.43-2.84,2.35-3.26,3.95-7.07,6.36-10.28,9.09-12.14,18.37-24.14,27.59-36.18,11.95-15.61,16.18-32.8,8.71-51.42-4.49-11.19-10.37-21.84-16.03-32.53C12.17,200.46.73,162.89,2.21,122.09c.61-16.95,4.93-33.11,12.98-48.01C34.97,37.47,67.3,16.86,106.28,7.1,141.55-1.73,177.71-1.71,213.71,3.79c11.11,1.69,21.76,4.94,30.4,12.64,10.68,9.51,16.31,21.73,17.91,35.78.85,7.46,1.18,15,1.45,22.52.41,11.9,5.44,20.68,16.18,26.26,3.91,2.03,7.55,4.77,10.86,7.7,4.5,4,4.48,8.9.29,13.2-1.83,1.88-4,3.47-6.16,4.98-6.82,4.78-7.06,6.96-1.18,12.55Z"/></g></svg>