<?xml version="1.0" encoding="UTF-8"?><svg id="Layer_2" xmlns="http://www.w3.org/2000/svg" viewBox="0 0 418.02 217.11"><defs><style>.cls-1{stroke-width:0px;}</style></defs><g id="Layer_1-2"><path class="cls-1" d="M121.22,6.31c12.39-.64,23.85-1.19,35.3-1.82,10.09-.56,20.18-1.32,30.28-1.79,4.1-.19,8.23.38,12.33.25,6.34-.2,12.67-.84,19.01-1.05,13.19-.43,26.4-.66,39.59-1.06,6.5-.2,13-.67,19.5-.84,3.58-.09,4.06.36,4.74,3.92,1.48,7.66,4.8,14.6,7.89,21.67,6.16,14.08,14.82,26.66,23.15,39.42,8.15,12.49,16.41,24.93,25.32,36.88,11.47,15.38,23.77,30.15,35.47,45.38,7.93,10.33,15.38,21.04,23.16,31.48,3.38,4.53,7.03,8.87,10.62,13.24,3.34,4.07,6.76,8.07,10.44,12.43-1.22.34-2.25.84-3.31.89-16.1.65-32.19,1.41-48.3,1.8-10.46.25-20.94-.28-31.39-.02-9.58.24-19.14,1.13-28.72,1.64-3.59.19-7.21.04-10.8.19-13.19.57-26.42.78-39.57,1.93-14.43,1.26-28.73,1.16-43.12-.47-6.94-.79-14.02-.33-21.03-.6-1.44-.05-3.1-.47-4.24-1.29-2.49-1.8-4.89-3.8-7-6.03-8.77-9.27-16.04-19.55-21.98-30.93-10.5-20.12-16.68-41.64-21.63-63.59-2.04-9.03-3.8-18.13-5.29-27.26-1.69-10.32-2.83-20.73-4.39-31.08-1.66-11.02-3.61-22-5.29-33.02-.51-3.33-.5-6.75-.75-10.29Z"/><path class="cls-1" d="M183.43,210.97c-33.57-.49-65.02,2.11-97.75-.02-.05-1.15-.26-2.16-.12-3.12,1.83-12.21,3.6-24.44,5.62-36.62,2.05-12.34,4.5-24.6,6.53-36.94,1.56-9.47,2.65-19.02,4.12-28.5,2.06-13.37,4.41-26.69,6.38-40.07,1.15-7.8,1.66-15.69,2.74-23.49,1.35-9.79,2.94-19.31,6.59-28.73.87,5.1,1.78,10.19,2.59,15.3,1.77,11.17,3.49,22.35,5.23,33.53,1.79,11.51,3.17,23.09,5.45,34.5,2.34,11.75,5.28,23.41,8.46,34.96,2.27,8.24,5.09,16.37,8.17,24.35,7.68,19.9,18.49,37.85,34.14,52.63.36.34.64.76,1.86,2.23Z"/><path class="cls-1" d="M115.07,5.31c-2.56,9.64-5.23,18.86-7.4,28.2-1.23,5.32-1.61,10.84-2.42,16.27-1.48,9.82-3.05,19.63-4.48,29.46-1.38,9.5-2.47,19.04-3.97,28.52-1.93,12.19-4.16,24.33-6.22,36.5-1.23,7.27-2.48,14.53-3.6,21.82-2,13.05-3.88,26.13-5.87,39.18-.25,1.67-.89,3.28-1.37,4.98-9,.77-17.84,1.68-26.7,2.23-8.89.55-17.81.71-26.71,1.08-8.72.37-17.2,3.2-25.92,3.55-.14-.41-.28-.83-.42-1.24,2.12-2.8,4.08-5.75,6.39-8.39,7.21-8.23,11.61-18.2,17.07-27.51,3.99-6.8,7.9-13.7,11.17-20.87,4.27-9.37,9.41-18.27,13.86-27.5,3.81-7.9,7.61-15.68,12.45-23.02,2.42-3.67,3.63-8.11,5.56-12.12,3.93-8.2,7.86-16.4,12.01-24.49,4.3-8.38,8.86-16.63,13.3-24.93.16-.3.39-.58.48-.91,4.2-14.14,13.83-25.51,19.72-38.8.51-1.16.57-1.13,3.06-2.02Z"/></g></svg>