<?xml version="1.0" encoding="UTF-8"?><svg id="Layer_2" xmlns="http://www.w3.org/2000/svg" viewBox="0 0 187.13 185.28"><defs><style>.cls-1{stroke-width:0px;}</style></defs><g id="lines"><path class="cls-1" d="M186.68,133.85c-1.07,8.67-2.95,17.09-7.88,24.52-1.62,2.45-3.05,5.06-4.95,7.28-3.1,3.68-7.22,6.15-11.66,7.84-2.01.76-4.38.62-6.57.88-3.68.2-7.12-.9-10.59-1.72-3.57-.85-5.02-3.78-6.6-6.58-1.42-2.5-1.41-5.33-1.47-8.08-.1-5.15.06-10.31-.13-15.46-.2-5.52-.3-11.09-1.15-16.53-.68-4.46-2.27-8.79-3.69-13.11-1-3.02-2.35-5.92-3.61-8.84-.19-.45-.73-.75-1.13-1.09-3.1-2.69-6.31-5.25-9.29-8.08-1.92-1.82-2.92-4.41-3.1-6.97-.22-3.09-.04-6.27.46-9.32.32-2.05,1.28-4.1,2.39-5.87,1.88-3.02,3.91-6.08,7.25-7.72,3.8-1.86,7.78-3.03,12.14-2.28,2.18.38,4.46.21,6.65.6,2.44.44,4.92.97,7.19,1.92,5.14,2.13,9.9,4.97,13.85,8.92,2.45,2.45,4.71,5.11,6.84,7.84,2.65,3.39,4.71,7.13,6.24,11.18,1.07,2.82,2.48,5.53,3.91,8.2,2.14,4.02,3.14,8.35,3.79,12.77.65,4.41,1.16,8.85,1.5,13.29.16,2.11-.13,4.29-.4,6.4Z"/><path class="cls-1" d="M110.07,168.76c-4.8,3.08-9.47,6.46-14.55,9.03-8,4.06-16.53,6.72-25.6,7.23-1.34.07-2.67.29-4.01.26-2.38-.07-4.77-.21-7.14-.45-3.29-.32-6.59-.63-9.84-1.19-2.26-.39-4.44-1.1-6.47-2.42-2.44-1.61-5.14-2.86-7.81-4.11-2.7-1.26-5.02-2.94-7.19-5.02-3.67-3.5-7.61-6.72-11.34-10.18-3.48-3.23-5.7-7.36-7.31-11.75-2.13-5.77-3.94-11.66-5.96-17.47-1.64-4.71-2.16-9.58-2.38-14.5-.16-3.39-.31-6.78-.47-10.16-.1-7.14,1.33-14.07,2.77-20.97,1.96-9.4,6.1-17.88,11.25-25.9,3.18-4.95,6.38-9.89,9.63-14.79,1.13-1.7,2.5-3.26,3.74-4.9,2.57-3.4,5.06-6.89,7.74-10.22,1.51-1.86,3.35-3.45,5.05-5.15.81-.81,1.71-1.51,2.47-2.36,5.3-5.9,11.64-10.5,18.46-14.46,3.7-2.15,7.51-4.14,11.13-6.4,5.04-3.14,10.47-3.22,16.07-2.54,4.11.51,8.02,1.62,11.85,3.19,3.04,1.24,4.85,3.88,7.18,5.92,3.82,3.31,4.4,7.7,4.52,12.38.27,10.42-3.5,19.47-8.75,28.23-3.31,5.54-7.84,9.91-12.02,14.67-4.06,4.62-8.15,9.22-11.41,14.49-2.76,4.45-4.03,9.35-4.65,14.41-.26,1.98.19,4.11.62,6.11,1.34,6.19,3.67,11.98,8.17,16.59,3.52,3.6,7.65,6.51,12.4,8.27,4.55,1.68,8.28,4.51,11.84,7.64,5.11,4.53,8.47,10.25,9.66,16.89,1.49,8.33-.51,15.04-7.65,19.63Z"/></g></svg>