<?xml version="1.0" encoding="UTF-8"?><svg id="Layer_2" xmlns="http://www.w3.org/2000/svg" viewBox="0 0 528.28 461.07"><defs><style>.cls-1{stroke-width:0px;}</style></defs><g id="Layer_1-2"><path class="cls-1" d="M195.94,156.92c1.25-14.5,2.43-28.24,3.63-42.27,5.98.51,11.59,1.05,17.21,1.43,3.41.23,6.84.39,10.25.27,9.25-.34,18.5-1,27.75-1.25,11.31-.3,22.64-.37,33.96-.4,6.86-.01,13.73.35,20.59.38,15.6.06,31.2,0,46.8.09,1.25,0,2.5.86,4.05,1.43-3.83,4.39-4.73,9.19-5.41,13.82-1.36,9.35-1.31,18.78.33,28.15.82,4.72,1.41,5.21,6,4.82,2.56-.22,5.13-.41,7.7-.47,10.97-.25,21.95-.73,32.91-.61,16.1.18,32.19-1.08,48.33.83,9.82,1.16,19.87.36,29.81.42,4.27.03,8.54,0,12.44,0,9.28,13.32,16.13,27.41,22.04,42.03,3.92,9.69,8.48,19.12,12.61,28.73.79,1.83,1.35,3.92,1.34,5.89-.1,14.74-.25,29.49-.64,44.23-.13,4.95-1.12,9.86-1.5,14.81-.76,9.74-1.38,19.5-2.03,29.25-.1,1.54-.01,3.09-.11,4.63-1.07,17.29-2.18,34.58-3.23,51.88-.17,2.74-.1,5.49-.16,8.24-.21,9.75-.53,19.51-.59,29.26-.02,2.75-1.41,3.79-3.66,3.96-4.1.32-8.22.53-12.34.52-9.77-.02-19.54-.31-29.31-.28-14.92.03-29.84.3-44.76.35-12.35.05-24.77-.83-37.04.15-9.45.76-18.83-.3-28.22.55-1.5.14-3,.35-5,.59-.37,7.29-.97,14.29-1.01,21.29-.05,7.29-1.01,8.72-8.44,8.93-6.86.2-13.73-.08-20.59.08-19.56.44-39.11,1.05-58.66,1.49-7.03.16-14.07,0-21.1-.02-1.37,0-2.79-.28-4.11-.01-11.11,2.21-22.24-.18-33.36.24-2.4.09-4.79.38-7.18.41-5.48.06-10.97.15-16.45-.03-2.93-.1-4.04-1.56-4.15-4.79-.3-8.87-.53-17.74-.8-27.24-1.04-.2-2.65-.72-4.27-.78-8.92-.33-17.93-1.47-26.74-.61-15.97,1.55-31.89,0-47.83.47-19.01.55-38.07.15-57.11-.94-11.6-.66-23.3.33-34.95.43-3.74.03-7.49-.39-11.15-.6-1.68-3.5-1.84-6.75-1.62-10.25.39-6.16.27-12.36.27-18.54.02-19.06.05-38.13-.01-57.19-.03-7.89-.56-15.79-.39-23.67.26-11.82,1.06-23.63,1.41-35.45.18-6.17-.11-12.35-.19-18.53-.07-5.84-.22-11.67-.17-17.51.05-6.32.2-12.65.52-18.97.08-1.61.72-3.33,1.55-4.75,7.84-13.5,15.58-27.06,23.77-40.35,3.86-6.26,8.65-11.94,12.99-17.91,1.33-1.82,3.23-1.65,5.12-1.69,7.03-.16,14.06-.46,21.09-.51,19.21-.11,38.35-2.24,57.6-1.79,11.62.27,23.27-1.1,34.92-1.51,9.78-.34,19.56-.32,29.34-.53,2.54-.06,5.07-.39,7.96-.62ZM97.5,243.34c-1.77,4.61-2.34,46.25-.89,52.17,7.39-.37,14.81-.74,22.42-1.12.33-1.29.68-2.41.9-3.56,1.35-6.88,0-13.67-1.05-20.4-.62-4-1.88-8.01-3.5-11.74-3.39-7.81-9.6-12.59-17.89-15.35ZM94.77,417.43c7.35-.41,13.91-.78,20.52-1.15,1.28-11.3,1.75-22.05,1.09-32.84-.12-2.04-.55-4.07-.94-6.08-1.46-7.65-10.93-15.19-19.25-13.75-.47,17.63-.94,35.33-1.43,53.83ZM436.08,291.02c7.66-.35,14.61-.61,21.55-1.01,2.16-.13,2.6-2.01,2.84-3.73.5-3.73.91-7.47,1.31-11.21.64-6.1-.56-11.93-2.91-17.53-3.53-8.4-11.65-13.47-21.15-13-.53,15.09-1.06,30.23-1.64,46.48ZM280.35,290.47c-.38,17.95-.75,35.75-1.13,53.72h22.51c.72-10.06-.71-19.54-1.64-29.08-1.19-12.2-6.94-19.35-19.74-24.64ZM270.92,344.12c2.12-18.08,1.57-35.68,1.49-54.19-2.76.99-4.96,1.42-6.78,2.49-6.41,3.78-9.85,9.83-12,16.72-3.11,9.95-3.07,20.3-3.65,30.56-.08,1.46-.01,2.92-.01,4.8,6.45,0,12.26.01,18.07-.01.83,0,1.65-.2,2.89-.36ZM430.21,243.59c-11.05,2.35-17.25,6.79-21.72,15.18-5.59,10.47-3.82,21.5-2.91,33.01,7.98-.53,15.41-1.01,23.04-1.52.54-15.79,1.06-30.98,1.6-46.67ZM88.18,244.93c-7.22,1.27-12.55,4.52-14.99,11.37-1.84,5.16-4.06,10.33-4.88,15.68-1.08,7.07-.93,14.32-1.33,21.48-.12,2.22,1.03,3.3,3.08,3.11,5.93-.55,11.84-1.26,18.12-1.95v-49.69ZM88.66,365.99c-10.31,2.58-16.55,11.84-17.4,19.65-1.04,9.53-1.94,19.08-2.84,28.63-.09.94.21,1.91.32,2.79h18.53c.47-17.14.92-33.87,1.39-51.07ZM298.09,246.15c.3-1.84.76-3.47.8-5.12.1-4.97-.17-9.96.09-14.92.38-7.21-2.02-13.55-5.82-19.38-2.79-4.29-6.54-7.74-12.16-10.54-1.02,17.15-.25,33.48-1.2,49.95h18.3ZM271.86,246.02c1.82-16.84.84-33.35,1.46-50.73-2.05,1.03-3.59,1.42-4.6,2.37-4.78,4.5-9.38,9.37-10.57,16.04-1.89,10.56-3.18,21.23-4.79,32.32h18.51ZM435.09,368.95c-10.64,4.13-16.83,11.36-18.42,21.34-1.37,8.54-.75,17.4-.97,26.12,0,.24.42.5.79.91,5.29.19,10.71.31,16.11-1.27.82-15.57,1.63-30.91,2.49-47.1ZM457.63,416.28c0-7.87-.05-15.22.02-22.57.06-6.72-1.97-12.88-5.17-18.63-1.91-3.43-4.56-6.32-9.84-6.46-.86,15.96-1.7,31.61-2.56,47.66h17.55Z"/><path class="cls-1" d="M202.75,107.14c3.87-6.56,7.12-12.58,10.85-18.29,6.94-10.61,14.42-20.81,22.98-30.24,5.02-5.53,9.1-11.92,13.65-17.89,2.08-2.72,4.33-5.31,6.4-8.05,6.3-8.33,12.52-16.72,18.82-25.06,1.03-1.36,2.17-2.67,3.44-3.8,5.36-4.83,9.99-5.04,15.69-.75.66.5,1.5,1.18,1.63,1.9,1.03,5.52,5.21,9.12,8,13.57,4.46,7.1,8.65,14.38,12.73,21.7,5.67,10.17,11.11,20.47,16.71,30.68,6.35,11.56,12.77,23.07,19.14,34.62.3.55.39,1.22.78,2.49-5.14,0-9.86.06-14.57,0-16.62-.23-33.24-.63-49.86-.72-15.25-.08-30.5.12-45.75.32-4.45.06-8.9.5-13.35.82-2.9.21-5.82.89-8.69.7-5.96-.4-11.89-1.23-18.6-1.97Z"/></g></svg>