<?xml version="1.0" encoding="UTF-8"?><svg id="Layer_2" xmlns="http://www.w3.org/2000/svg" viewBox="0 0 324.32 320.04"><defs><style>.cls-1{stroke-width:0px;}</style></defs><g id="Layer_1-2"><path class="cls-1" d="M234.68,40.22c.22-3.29.53-5.76.52-8.24-.02-6.51-.28-13.02-.26-19.53.01-3.4.82-4.21,4.37-4.25,5.65-.06,11.31.29,16.96.19,8.06-.14,16.12-.54,24.18-.82.51-.02,1.03-.08,1.54-.07,6.51.01,6.68.6,6.21,6.89-.84,11.45-1.14,22.95-1.76,34.42-.47,8.73-1.18,17.46-1.59,26.19-.35,7.37-.44,14.75-.61,22.12-.06,2.39,0,4.79,0,7,1.5,2.04,3.09,4.02,4.46,6.13,6.07,9.36,11.94,18.86,18.15,28.13,3.91,5.84,8.23,11.4,12.5,16.98.97,1.27,2.47,2.15,3.94,3.39.36,8.94,1.22,18.2.99,27.43-.35,14.23-1.49,28.43-2.21,42.65-.59,11.48-.85,22.98-1.63,34.45-1.14,16.75-2.61,33.47-3.94,50.22-1.3.42-2.08.87-2.87.9-7.71.31-15.45.27-23.14.89-12.87,1.03-25.73.18-38.59.19-4.79,0-9.58.69-14.38.89-9.08.38-18.16.53-27.23.97-5.64.28-11.26,1.01-16.9,1.38-8.71.57-17.35,1.32-26.04-1.13-3.82-1.07-8.18-.25-12.29-.19-12.53.2-25.06.57-37.59.65-19.21.13-38.42-.15-57.62.17-11.65.2-23.28,1.38-34.93,1.77-5.28.18-10.6-.41-15.89-.8-2.56-.19-3.22-2.56-3.68-4.45-.76-3.14-1.19-6.39-1.43-9.62-.71-9.39-1.25-18.79-1.86-28.19-.1-1.54-.3-3.08-.31-4.62-.24-26.09-.44-52.18-.68-78.27-.1-10.81-.24-21.63-.43-32.44-.14-7.89-.48-15.77-.6-23.65-.14-8.87,1.7-17.09,5.84-25.2,4.91-9.61,11.51-17.87,17.87-26.36,10.19-13.58,20.56-27.03,31.09-40.35,4.88-6.18,10.38-11.87,15.47-17.89,5.87-6.94,11.74-13.9,17.34-21.05,2.38-3.03,5.02-4.99,8.88-5.43,11.26-1.29,22.49-2.2,33.88-1.31,8.19.65,16.47.14,24.7.28,11.66.2,23.32.51,34.98.81,4.37.11,7.77,2.14,10.8,5.23,10.22,10.42,20.56,20.72,30.86,31.05.68.69,1.48,1.26,2.95,2.49ZM100.65,140.76c-18.1-2.34-35.52-.04-53.22,1.57-.29,5.02-.78,9.45-.75,13.87.07,10.46.39,20.91.62,31.37.03,1.2-.21,2.52.21,3.57.46,1.16,1.44,2.83,2.37,2.96,5.37.76,10.84,1.77,16.21,1.48,5.92-.32,11.68-2.12,17.81-1.31,3.82.5,7.85-.12,11.73-.65,3.44-.47,3.92-1.41,3.67-4.85-.16-2.22-.56-4.45-.44-6.66.51-8.89,1.28-17.77,1.74-26.67.24-4.59.04-9.2.04-14.68ZM158.62,136.75c-.38,2.56-.92,4.69-.98,6.85-.4,14.74-.69,29.48-1.02,44.21-.1,4.52.31,5.02,4.92,5.01,7.53-.02,15.06.07,22.57-.32,6.46-.34,12.88-1.29,19.16-1.95,2.78-18.76,1.04-37.21,1.56-55.66-2.79-1.29-5.31-.9-7.84-.48-3.21.53-6.42,1.26-9.65,1.39-7.19.29-14.4.22-21.6.38-2.36.05-4.71.37-7.13.58ZM116.36,307.84c9.2.24,17.68.69,26.17.63,8.65-.06,17.3-.6,25.85-.93,1.15-10.25-.46-32.81-2.84-41.39-1.29-4.63-3.96-7.67-8.79-9.11-4.36-1.3-8.7-1.94-13.17-1.57-13.49,1.12-23.16,9.03-25.24,22.15-.16,1.01-.42,2.01-.64,3.02-1.95,8.77-1.73,17.63-1.34,27.2Z"/></g></svg>