<?xml version="1.0" encoding="UTF-8"?><svg id="Layer_2" xmlns="http://www.w3.org/2000/svg" viewBox="0 0 115.33 218.56"><defs><style>.cls-1{stroke-width:0px;}</style></defs><g id="lines"><path class="cls-1" d="M110.68,218.53c-2.86-.19-5.72-.12-8.58-.19-3.09-.07-6.17-.17-9.26-.27-.31-.01-.69-.26-.91-.14-2.61,1.37-5.17.09-7.73-.13-.38-.03-.75-.06-1.13-.09-3.65-.32-7.31-.66-10.92-1.22-4.92-.77-9.65.14-14.42,1.11-4.13.83-8.2.07-12.3-.4-3.62-.41-7.24-.85-10.87-1.01-1.59-.07-3.2-.09-4.81-.03-1.58.06-3.18-.22-4.76-.19-2.69.05-5.37.2-8.06.37-5.13.33-10.24.72-15.32-.49-.57-.13-1.11-.38-1.63-.86.58-.13,1.15-.19,1.73-.2l.43-4.82c.08-7.38.16-14.75.22-22.13.03-3.03-.06-6.05.04-9.07.06-1.58.41-3.15.6-4.73.83-6.79-.05-13.66.8-20.45.43-3.42-.11-6.77-.38-10.15-.29-3.4-.22-6.83-.44-10.23-.27-4.13-.65-8.26-1.01-12.38-.25-2.82-.67-5.63-.15-8.46.31-1.63.52-3.29.57-4.94.11-3.66,1.56-6.96,2.7-10.33,1.24-3.61,2.79-7.11,4.22-10.66,2.08-5.2,5.42-9.34,10.28-12.2.27-.16.48-.44.76-.57,3.28-1.64,6.54-3.29,9.86-4.83.99-.46,2.13-.66,3.23-.87,2.72-.51,5.48-.91,8.2-1.5.55-.12,1.21-.84,1.37-1.4,1.13-3.9,2.15-7.84,3.18-11.77.12-.45,0-.95.08-1.42.16-1.18.09-2.5.61-3.51,2.49-4.86,3.38-24.34,4.57-29.54,1.12-4.87,2.16-9.75,3.56-14.55.25-.83.5-1.74,1.04-2.37.44-.53,1.31-.96,1.99-.97,2.05-.02,4.1.22,6.16.28.7.02,1.41-.19,2.11-.31,1.73-.28,3.47-.52,5.18-.85,1.56-.31,2.83.44,4,1.17,1.08.68,1.53,1.65,1.44,3.21-.31,5.69-.09,25.52.29,31.23.23,3.45.5,6.94.86,10.37.36,3.46.37,6.94.82,10.39.53,3.92.85,7.86,1.17,11.8.18,2.18,1.71,3.37,3.38,3.85,3.52,1,6.18,3.22,8.82,5.49,4.88,4.18,8.37,9.41,11.58,14.9.21.36.43.74.64,1.1,1.11,1.93,2.2,3.88,2.96,5.92,1.32,3.48,2.54,7.07,3.21,10.71.92,5.12,1.67,10.28,2.37,15.44.29,2.15.58,4.31.86,6.45.26,1.96.07,3.97.11,5.94.02,1.27.04,2.55.14,3.82.24,3.4.56,6.8.76,10.19.25,4.19.72,8.37.19,12.6-.26,2.02.1,4.12.03,6.19-.18,5.47-.56,10.95-.6,16.42-.02,3.41.43,6.82.67,10.23.04.55.05,1.12.06,1.68.1,4.99.13,9.99-.64,14.96-.03.19.01.4.06.83.01.06.02.13.02.2"/><path class="cls-1" d="M35.81,66c-.16.42-.23.61-.31.8-.2-.16-.45-.29-.6-.48-.05-.07.14-.43.28-.47.19-.04.41.09.63.15Z"/></g></svg>